<svg xmlns="http://www.w3.org/2000/svg" viewBox="0 0 25.93 23.76"><defs><style>.cls-1{fill:#fff;}</style></defs><g id="Capa_2" data-name="Capa 2"><g id="Capa_1-2" data-name="Capa 1"><path class="cls-1" d="M23,0H6.78A2.89,2.89,0,0,0,3.9,2.89v9.8a2.89,2.89,0,0,0,2.88,2.89h9.45l.34.43,2.85,3.6a.77.77,0,0,0,.6.3,1,1,0,0,0,.24,0,.76.76,0,0,0,.52-.7c0-.86.06-2.14.06-3.59H23a2.9,2.9,0,0,0,2.89-2.89V2.89A2.9,2.9,0,0,0,23,0Zm1.89,12.69A1.89,1.89,0,0,1,23,14.58h-3.2v.5c0,1.33,0,2.56,0,3.41l-3.09-3.91H6.78A1.89,1.89,0,0,1,4.9,12.69V2.89A1.89,1.89,0,0,1,6.78,1H23a1.89,1.89,0,0,1,1.89,1.89Z"/><path class="cls-1" d="M16.57,16v2.32a2.17,2.17,0,0,1-2.16,2.17H7.3l-2.41,3a.54.54,0,0,1-.44.22.63.63,0,0,1-.19,0,.58.58,0,0,1-.39-.53c0-.65-.05-1.61-.05-2.7H2.17A2.17,2.17,0,0,1,0,18.33V11A2.18,2.18,0,0,1,2.17,8.78H3.9v.76H2.17A1.43,1.43,0,0,0,.75,11v7.37a1.43,1.43,0,0,0,1.42,1.43H4.58v.37c0,1,0,1.92,0,2.56l2.32-2.93h7.48a1.43,1.43,0,0,0,1.41-1.43V15.58h.41Z"/><rect class="cls-1" x="3.9" y="8.78" width="0.91" height="0.76"/><polygon class="cls-1" points="16.57 15.05 16.57 16.01 16.23 15.58 15.82 15.58 15.82 15.05 16.57 15.05"/></g></g></svg>